<svg xmlns="http://www.w3.org/2000/svg" xmlns:xlink="http://www.w3.org/1999/xlink"><defs></defs>
<symbol id="access_alarm"    viewBox="0 0 48 48"><path d="M44 11.44l-9.19-7.71-2.57 3.06 9.19 7.71L44 11.44zM15.76 6.78l-2.57-3.06L4 11.43l2.57 3.06 9.19-7.71zM25 16h-3v12l9.49 5.71L33 31.24l-8-4.74V16zm-1.01-8C14.04 8 6 16.06 6 26s8.04 18 17.99 18S42 35.94 42 26 33.94 8 23.99 8zM24 40c-7.73 0-14-6.27-14-14s6.27-14 14-14 14 6.27 14 14-6.26 14-14 14z"/></symbol>
<symbol id="access_alarms"    viewBox="0 0 48 48"><path d="M44 11.5l-9.2-7.7-2.6 3.1 9.2 7.7 2.6-3.1zM15.7 6.8l-2.6-3.1L4 11.5l2.6 3.1 9.1-7.8zM25 16h-3v12l9.5 5.7 1.5-2.5-8-4.7V16zm-1-8C14 8 6 16.1 6 26s8 18 18 18c9.9 0 18-8.1 18-18S33.9 8 24 8zm0 32c-7.7 0-14-6.3-14-14s6.3-14 14-14 14 6.3 14 14c0 7.8-6.3 14-14 14z"/></symbol>
<symbol id="access_time"    viewBox="0 0 48 48"><path d="M23.99 4C12.94 4 4 12.95 4 24s8.94 20 19.99 20C35.04 44 44 35.05 44 24S35.04 4 23.99 4zM24 40c-8.84 0-16-7.16-16-16S15.16 8 24 8s16 7.16 16 16-7.16 16-16 16zm1-26h-3v12l10.49 6.3L34 29.84l-9-5.34z"/></symbol>
<symbol id="add_alarm"    viewBox="0 0 48 48"><path d="M15.76 6.78l-2.57-3.06L4 11.43l2.57 3.06 9.19-7.71zM44 11.44l-9.19-7.71-2.57 3.06 9.19 7.71L44 11.44zM23.99 8C14.04 8 6 16.06 6 26s8.04 18 17.99 18S42 35.94 42 26 33.94 8 23.99 8zM24 40c-7.73 0-14-6.27-14-14s6.27-14 14-14 14 6.27 14 14-6.26 14-14 14zm2-22h-4v6h-6v4h6v6h4v-6h6v-4h-6v-6z"/></symbol>
<symbol id="airplanemode_active"    viewBox="0 0 48 48"><path d="M20.36 18"/><path d="M42 32v-4L26 18V7c0-1.66-1.34-3-3-3s-3 1.34-3 3v11L4 28v4l16-5v11l-4 3v3l7-2 7 2v-3l-4-3V27l16 5z"/></symbol>
<symbol id="airplanemode_inactive"    viewBox="0 0 48 48"><path d="M26 18V7c0-1.66-1.34-3-3-3s-3 1.34-3 3v7.36l15.65 15.65L42 32v-4L26 18zM6 10.55l9.97 9.97L4 28v4l16-5v11l-4 3v3l7-2 7 2v-3l-4-3v-7.45L37.45 42 40 39.45 8.55 8 6 10.55z"/></symbol>
<symbol id="battery_20"    viewBox="0 0 48 48"><path d="M14 34v7.33C14 42.8 15.19 44 16.67 44h14.67c1.47 0 2.67-1.19 2.67-2.67V34H14z"/><path fill-opacity=".3" d="M34 10.67C34 9.19 32.81 8 31.33 8H28V4h-8v4h-3.33C15.19 8 14 9.19 14 10.67V34h20V10.67z"/></symbol>
<symbol id="battery_30"    viewBox="0 0 48 48"><path fill-opacity=".3" d="M34 10.67C34 9.19 32.81 8 31.33 8H28V4h-8v4h-3.33C15.19 8 14 9.19 14 10.67V30h20V10.67z"/><path d="M14 30v11.33C14 42.8 15.19 44 16.67 44h14.67c1.47 0 2.67-1.19 2.67-2.67V30H14z"/></symbol>
<symbol id="battery_50"    viewBox="0 0 48 48"><path fill-opacity=".3" d="M34 10.67C34 9.19 32.81 8 31.33 8H28V4h-8v4h-3.33C15.19 8 14 9.19 14 10.67V26h20V10.67z"/><path d="M14 26v15.33C14 42.8 15.19 44 16.67 44h14.67c1.47 0 2.67-1.19 2.67-2.67V26H14z"/></symbol>
<symbol id="battery_60"    viewBox="0 0 48 48"><path fill-opacity=".3" d="M34 10.67C34 9.19 32.81 8 31.33 8H28V4h-8v4h-3.33C15.19 8 14 9.19 14 10.67V22h20V10.67z"/><path d="M14 22v19.33C14 42.8 15.19 44 16.67 44h14.67c1.47 0 2.67-1.19 2.67-2.67V22H14z"/></symbol>
<symbol id="battery_80"    viewBox="0 0 48 48"><path fill-opacity=".3" d="M34 10.67C34 9.19 32.81 8 31.33 8H28V4h-8v4h-3.33C15.19 8 14 9.19 14 10.67V18h20v-7.33z"/><path d="M14 18v23.33C14 42.8 15.19 44 16.67 44h14.67c1.47 0 2.67-1.19 2.67-2.67V18H14z"/></symbol>
<symbol id="battery_90"    viewBox="0 0 48 48"><path fill-opacity=".3" d="M34 10.67C34 9.19 32.81 8 31.33 8H28V4h-8v4h-3.33C15.19 8 14 9.19 14 10.67V16h20v-5.33z"/><path d="M14 16v25.33C14 42.8 15.19 44 16.67 44h14.67c1.47 0 2.67-1.19 2.67-2.67V16H14z"/></symbol>
<symbol id="battery_alert"    viewBox="0 0 48 48"><path d="M31.33 8H28V4h-8v4h-3.33C15.19 8 14 9.19 14 10.67v30.67c0 1.47 1.19 2.67 2.67 2.67h14.67c1.47 0 2.67-1.19 2.67-2.67V10.67C34 9.19 32.81 8 31.33 8zM26 36h-4v-4h4v4zm0-8h-4V18h4v10z"/></symbol>
<symbol id="battery_charging_20"    viewBox="0 0 48 48"><path d="M22 40v-6h-8v7.33C14 42.8 15.19 44 16.67 44h14.67c1.47 0 2.67-1.19 2.67-2.67V34h-8.8L22 40z"/><path fill-opacity=".3" d="M31.33 8H28V4h-8v4h-3.33C15.19 8 14 9.19 14 10.67V34h8v-5h-4l8-15v11h4l-4.8 9H34V10.67C34 9.19 32.81 8 31.33 8z"/></symbol>
<symbol id="battery_charging_30"    viewBox="0 0 48 48"><path fill-opacity=".3" d="M31.33 8H28V4h-8v4h-3.33C15.19 8 14 9.19 14 10.67V29h4l8-15v11h4l-2.13 4H34V10.67C34 9.19 32.81 8 31.33 8z"/><path d="M22 40V29h-8v12.33C14 42.8 15.19 44 16.67 44h14.67c1.47 0 2.67-1.19 2.67-2.67V29h-6.13L22 40z"/></symbol>
<symbol id="battery_charging_50"    viewBox="0 0 48 48"><path d="M28.93 27L22 40V29h-4l1.07-2H14v14.33C14 42.8 15.19 44 16.67 44h14.67c1.47 0 2.67-1.19 2.67-2.67V27h-5.08z"/><path fill-opacity=".3" d="M31.33 8H28V4h-8v4h-3.33C15.19 8 14 9.19 14 10.67V27h5.07L26 14v11h4l-1.07 2H34V10.67C34 9.19 32.81 8 31.33 8z"/></symbol>
<symbol id="battery_charging_60"    viewBox="0 0 48 48"><path fill-opacity=".3" d="M31.33 8H28V4h-8v4h-3.33C15.19 8 14 9.19 14 10.67V22h7.73L26 14v8h8V10.67C34 9.19 32.81 8 31.33 8z"/><path d="M26 25h4l-8 15V29h-4l3.73-7H14v19.33C14 42.8 15.19 44 16.67 44h14.67c1.47 0 2.67-1.19 2.67-2.67V22h-8v3z"/></symbol>
<symbol id="battery_charging_80"    viewBox="0 0 48 48"><path fill-opacity=".3" d="M31.33 8H28V4h-8v4h-3.33C15.19 8 14 9.19 14 10.67V18h9.87L26 14v4h8v-7.33C34 9.19 32.81 8 31.33 8z"/><path d="M26 25h4l-8 15V29h-4l5.87-11H14v23.33C14 42.8 15.19 44 16.67 44h14.67c1.47 0 2.67-1.19 2.67-2.67V18h-8v7z"/></symbol>
<symbol id="battery_charging_90"    viewBox="0 0 48 48"><path fill-opacity=".3" d="M31.33 8H28V4h-8v4h-3.33C15.19 8 14 9.19 14 10.67V16h10.93L26 14v2h8v-5.33C34 9.19 32.81 8 31.33 8z"/><path d="M26 25h4l-8 15V29h-4l6.93-13H14v25.33C14 42.8 15.19 44 16.67 44h14.67c1.47 0 2.67-1.19 2.67-2.67V16h-8v9z"/></symbol>
<symbol id="battery_charging_full"    viewBox="0 0 48 48"><path d="M31.33 8H28V4h-8v4h-3.33C15.19 8 14 9.19 14 10.67v30.67c0 1.47 1.19 2.67 2.67 2.67h14.67c1.47 0 2.67-1.19 2.67-2.67V10.67C34 9.19 32.81 8 31.33 8zM22 40V29h-4l8-15v11h4l-8 15z"/></symbol>
<symbol id="battery_full"    viewBox="0 0 48 48"><path d="M31.33 8H28V4h-8v4h-3.33C15.19 8 14 9.19 14 10.67v30.67c0 1.47 1.19 2.67 2.67 2.67h14.67c1.47 0 2.67-1.19 2.67-2.67V10.67C34 9.19 32.81 8 31.33 8z"/></symbol>
<symbol id="battery_std"    viewBox="0 0 48 48"><path d="M31.33 8H28V4h-8v4h-3.33C15.19 8 14 9.19 14 10.67v30.67c0 1.47 1.19 2.67 2.67 2.67h14.67c1.47 0 2.67-1.19 2.67-2.67V10.67C34 9.19 32.81 8 31.33 8z"/></symbol>
<symbol id="battery_unknown"    viewBox="0 0 48 48"><path d="M31.33 8H28V4h-8v4h-3.33C15.19 8 14 9.19 14 10.67v30.67c0 1.47 1.19 2.67 2.67 2.67h14.67c1.47 0 2.67-1.19 2.67-2.67V10.67C34 9.19 32.81 8 31.33 8zM25.9 35.9h-3.8v-3.8h3.8v3.8zm2.7-10.52s-.76.84-1.34 1.42c-.97.97-1.66 2.29-1.66 3.2h-3.2c0-1.66.92-3.05 1.86-3.99l1.86-1.89c.54-.54.88-1.29.88-2.12 0-1.66-1.34-3-3-3s-3 1.34-3 3h-3c0-3.31 2.69-6 6-6s6 2.69 6 6c0 1.32-.53 2.52-1.4 3.38z"/></symbol>
<symbol id="bluetooth"    viewBox="0 0 48 48"><path d="M35.41 15.41L24 4h-2v15.17L12.83 10 10 12.83 21.17 24 10 35.17 12.83 38 22 28.83V44h2l11.41-11.41L26.83 24l8.58-8.59zM26 11.66l3.76 3.76L26 19.17v-7.51zm3.76 20.93L26 36.34v-7.52l3.76 3.77z"/></symbol>
<symbol id="bluetooth_connected"    viewBox="0 0 48 48"><path d="M14 24l-4-4-4 4 4 4 4-4zm21.41-8.59L24 4h-2v15.17L12.83 10 10 12.83 21.17 24 10 35.17 12.83 38 22 28.83V44h2l11.41-11.41L26.83 24l8.58-8.59zM26 11.66l3.76 3.76L26 19.17v-7.51zm3.76 20.93L26 36.34v-7.52l3.76 3.77zM38 20l-4 4 4 4 4-4-4-4z"/></symbol>
<symbol id="bluetooth_disabled"    viewBox="0 0 48 48"><path d="M26 11.83l3.76 3.76-3.2 3.2 2.83 2.83 6.03-6.03L24 4.17h-2v10.06l4 4v-6.4zM10.83 8.17L8 11l13.17 13.17L10 35.34l2.83 2.83L22 29v15.17h2l8.59-8.59 4.59 4.59L40 37.34 10.83 8.17zM26 36.51V29l3.76 3.76L26 36.51z"/></symbol>
<symbol id="bluetooth_searching"    viewBox="0 0 48 48"><path d="M28.48 24.02l4.64 4.64c.56-1.45.88-3.02.88-4.66 0-1.63-.31-3.19-.86-4.63l-4.66 4.65zm10.58-10.59l-2.53 2.53c1.25 2.41 1.97 5.14 1.97 8.05s-.72 5.63-1.97 8.05l2.4 2.4c1.93-3.1 3.07-6.73 3.07-10.63 0-3.82-1.09-7.37-2.94-10.4zm-7.65 1.98L20 4h-2v15.17L8.83 10 6 12.83 17.17 24 6 35.17 8.83 38 18 28.83V44h2l11.41-11.41L22.83 24l8.58-8.59zM22 11.66l3.76 3.76L22 19.17v-7.51zm3.76 20.93L22 36.34v-7.52l3.76 3.77z"/></symbol>
<symbol id="brightness_auto"    viewBox="0 0 48 48"><path d="M21.7 25.3h4.6L24 18l-2.3 7.3zM40 17.37V8h-9.37L24 1.37 17.37 8H8v9.37L1.37 24 8 30.63V40h9.37L24 46.63 30.63 40H40v-9.37L46.63 24 40 17.37zM28.6 32l-1.4-4h-6.4l-1.4 4h-3.8L22 14h4l6.4 18h-3.8z"/></symbol>
<symbol id="brightness_high"    viewBox="0 0 48 48"><path d="M40 17.37V8h-9.37L24 1.37 17.37 8H8v9.37L1.37 24 8 30.63V40h9.37L24 46.63 30.63 40H40v-9.37L46.63 24 40 17.37zM24 36c-6.63 0-12-5.37-12-12s5.37-12 12-12 12 5.37 12 12-5.37 12-12 12zm0-20c-4.42 0-8 3.58-8 8s3.58 8 8 8 8-3.58 8-8-3.58-8-8-8z"/></symbol>
<symbol id="brightness_low"    viewBox="0 0 48 48"><path d="M40 30.63L46.63 24 40 17.37V8h-9.37L24 1.37 17.37 8H8v9.37L1.37 24 8 30.63V40h9.37L24 46.63 30.63 40H40v-9.37zM24 36c-6.63 0-12-5.37-12-12s5.37-12 12-12 12 5.37 12 12-5.37 12-12 12z"/></symbol>
<symbol id="brightness_medium"    viewBox="0 0 48 48"><path d="M40 30.63L46.63 24 40 17.37V8h-9.37L24 1.37 17.37 8H8v9.37L1.37 24 8 30.63V40h9.37L24 46.63 30.63 40H40v-9.37zM24 36V12c6.63 0 12 5.37 12 12s-5.37 12-12 12z"/></symbol>
<symbol id="data_usage"    viewBox="0 0 48 48"><path d="M26 4.1v6.06c6.78.97 12 6.79 12 13.84 0 1.79-.35 3.5-.96 5.07l5.2 3.07C43.35 29.65 44 26.91 44 24c0-10.37-7.89-18.89-18-19.9zM24 38c-7.73 0-14-6.27-14-14 0-7.05 5.22-12.87 12-13.84V4.1C11.88 5.1 4 13.63 4 24c0 11.05 8.94 20 19.99 20 6.62 0 12.47-3.23 16.11-8.18l-5.19-3.06C32.35 35.95 28.42 38 24 38z"/></symbol>
<symbol id="developer_mode"    viewBox="0 0 48 48"><path d="M14 10.17h20v4h4v-8c0-2.21-1.79-3.98-4-3.98l-20-.02c-2.21 0-4 1.79-4 4v8h4v-4zm16.83 23.17L40 24.17 30.83 15 28 17.83l6.34 6.34L28 30.52l2.83 2.82zM20 30.52l-6.34-6.34L20 17.83 17.17 15 8 24.17l9.17 9.17L20 30.52zm14 7.65H14v-4h-4v8c0 2.21 1.79 4 4 4h20c2.21 0 4-1.79 4-4v-8h-4v4z"/></symbol>
<symbol id="devices"    viewBox="0 0 48 48"><path d="M8 12h36V8H8c-2.21 0-4 1.79-4 4v22H0v6h28v-6H8V12zm38 4H34c-1.1 0-2 .9-2 2v20c0 1.1.9 2 2 2h12c1.1 0 2-.9 2-2V18c0-1.1-.9-2-2-2zm-2 18h-8V20h8v14z"/></symbol>
<symbol id="dvr"    viewBox="0 0 48 48"><path d="M42 6H6c-2.21 0-4 1.79-4 4v24c0 2.21 1.79 4 4 4h10v4h16v-4h10c2.21 0 3.98-1.79 3.98-4L46 10c0-2.21-1.79-4-4-4zm0 28H6V10h36v24zm-4-18H16v4h22v-4zm0 8H16v4h22v-4zm-24-8h-4v4h4v-4zm0 8h-4v4h4v-4z"/></symbol>
<symbol id="gps_fixed"    viewBox="0 0 48 48"><path d="M24 16c-4.42 0-8 3.58-8 8s3.58 8 8 8 8-3.58 8-8-3.58-8-8-8zm17.88 6C40.96 13.66 34.34 7.04 26 6.12V2h-4v4.12C13.66 7.04 7.04 13.66 6.12 22H2v4h4.12c.92 8.34 7.54 14.96 15.88 15.88V46h4v-4.12c8.34-.92 14.96-7.54 15.88-15.88H46v-4h-4.12zM24 38c-7.73 0-14-6.27-14-14s6.27-14 14-14 14 6.27 14 14-6.27 14-14 14z"/></symbol>
<symbol id="gps_not_fixed"    viewBox="0 0 48 48"><path d="M41.88 22C40.96 13.66 34.34 7.04 26 6.12V2h-4v4.12C13.66 7.04 7.04 13.66 6.12 22H2v4h4.12c.92 8.34 7.54 14.96 15.88 15.88V46h4v-4.12c8.34-.92 14.96-7.54 15.88-15.88H46v-4h-4.12zM24 38c-7.73 0-14-6.27-14-14s6.27-14 14-14 14 6.27 14 14-6.27 14-14 14z"/></symbol>
<symbol id="gps_off"    viewBox="0 0 48 48"><path d="M41.88 22C40.96 13.66 34.34 7.04 26 6.12V2h-4v4.12c-2.26.25-4.38.93-6.31 1.94l3 3C20.33 10.38 22.12 10 24 10c7.73 0 14 6.27 14 14 0 1.88-.38 3.67-1.05 5.31l3 3c1.01-1.93 1.68-4.05 1.93-6.31H46v-4h-4.12zM6 8.55l4.07 4.07C7.93 15.24 6.51 18.46 6.12 22H2v4h4.12c.92 8.34 7.54 14.96 15.88 15.88V46h4v-4.12c3.54-.39 6.76-1.82 9.38-3.96L39.45 42 42 39.46 8.55 6 6 8.55zm26.53 26.53C30.17 36.9 27.22 38 24 38c-7.73 0-14-6.27-14-14 0-3.22 1.1-6.17 2.92-8.53l19.61 19.61z"/></symbol>
<symbol id="graphic_eq"    viewBox="0 0 48 48"><path d="M14 36h4V12h-4v24zm8 8h4V4h-4v40zM6 28h4v-8H6v8zm24 8h4V12h-4v24zm8-16v8h4v-8h-4z"/></symbol>
<symbol id="location_disabled"    viewBox="0 0 48 48"><path d="M41.88 22.17C40.96 13.83 34.34 7.21 26 6.29V2.17h-4v4.12c-2.26.25-4.38.93-6.31 1.94l3 3c1.64-.67 3.43-1.05 5.31-1.05 7.73 0 14 6.27 14 14 0 1.88-.38 3.67-1.05 5.31l3 3c1.01-1.93 1.68-4.05 1.93-6.31H46v-4h-4.12zM6 8.72l4.07 4.07c-2.14 2.62-3.57 5.84-3.96 9.38H2v4h4.12c.92 8.34 7.54 14.96 15.88 15.88v4.12h4v-4.12c3.54-.39 6.76-1.82 9.38-3.96l4.08 4.08L42 39.63 8.55 6.17 6 8.72zm26.53 26.53c-2.36 1.82-5.32 2.92-8.53 2.92-7.73 0-14-6.27-14-14 0-3.22 1.1-6.17 2.92-8.53l19.61 19.61z"/></symbol>
<symbol id="location_searching"    viewBox="0 0 48 48"><path d="M41.88 22.17C40.96 13.83 34.34 7.21 26 6.29V2.17h-4v4.12c-8.34.92-14.96 7.54-15.88 15.88H2v4h4.12c.92 8.34 7.54 14.96 15.88 15.88v4.12h4v-4.12c8.34-.92 14.96-7.54 15.88-15.88H46v-4h-4.12zM24 38.17c-7.73 0-14-6.27-14-14s6.27-14 14-14 14 6.27 14 14-6.27 14-14 14z"/></symbol>
<symbol id="network_cell"    viewBox="0 0 48 48"><path fill-opacity=".3" d="M4 44h40V4z"/><path d="M34 14L4 44h30z"/></symbol>
<symbol id="network_wifi"    viewBox="0 0 48 48"><path fill-opacity=".3" d="M24.02 42.98L47.28 14c-.9-.68-9.85-8-23.28-8S1.62 13.32.72 14l23.26 28.98.02.02.02-.02z"/><path d="M7.07 21.91l16.92 21.07.01.02.02-.02 16.92-21.07C40.08 21.25 33.62 16 24 16c-9.63 0-16.08 5.25-16.93 5.91z"/></symbol>
<symbol id="nfc"    viewBox="0 0 48 48"><path d="M40 4.17H8c-2.21 0-4 1.79-4 4v32c0 2.21 1.79 4 4 4h32c2.21 0 4-1.79 4-4v-32c0-2.21-1.79-4-4-4zm0 36H8v-32h32v32zm-4-28H26c-2.21 0-4 1.79-4 4v4.55c-1.19.69-2 1.97-2 3.45 0 2.21 1.79 4 4 4s4-1.79 4-4c0-1.48-.81-2.75-2-3.45v-4.55h6v16H16v-16h4v-4h-8v24h24v-24z"/></symbol>
<symbol id="screen_lock_landscape"    viewBox="0 0 48 48"><path d="M42 10H6c-2.21 0-4 1.79-4 4v20c0 2.21 1.79 4 4 4h36c2.21 0 4-1.79 4-4V14c0-2.21-1.79-4-4-4zm-4 24H10V14h28v20zm-18-2h8c1.11 0 2-.9 2-2v-6c0-1.1-.89-2-2-2v-2c0-2.21-1.79-4-4-4s-4 1.79-4 4v2c-1.11 0-2 .9-2 2v6c0 1.1.89 2 2 2zm1.6-12c0-1.33 1.07-2.4 2.4-2.4 1.33 0 2.4 1.08 2.4 2.4v2h-4.8v-2z"/></symbol>
<symbol id="screen_lock_portrait"    viewBox="0 0 48 48"><path d="M20 32h8c1.11 0 2-.9 2-2v-6c0-1.1-.89-2-2-2v-2c0-2.21-1.79-4-4-4s-4 1.79-4 4v2c-1.11 0-2 .9-2 2v6c0 1.1.89 2 2 2zm1.6-12c0-1.33 1.07-2.4 2.4-2.4 1.33 0 2.4 1.08 2.4 2.4v2h-4.8v-2zM34 2H14c-2.21 0-4 1.79-4 4v36c0 2.21 1.79 4 4 4h20c2.21 0 4-1.79 4-4V6c0-2.21-1.79-4-4-4zm0 36H14V10h20v28z"/></symbol>
<symbol id="screen_lock_rotation"    viewBox="0 0 48 48"><path d="M46.51 25.54l-5.14-5.14-2.83 2.83 4.43 4.43-11.31 11.31L9.03 16.34 20.34 5.03l4.19 4.19 2.83-2.83-4.9-4.9c-1.17-1.17-3.07-1.17-4.24 0L5.49 14.22c-1.17 1.17-1.17 3.07 0 4.24L29.53 42.5c1.17 1.17 3.07 1.17 4.24 0L46.5 29.77c1.18-1.16 1.18-3.06.01-4.23zM16.93 40.97C10.4 37.87 5.71 31.52 5 24H2c1.02 12.32 11.32 22 23.9 22 .45 0 .88-.04 1.33-.07L19.6 38.3l-2.67 2.67zM32 18h10c1.11 0 2-.9 2-2V8c0-1.1-.89-2-2-2V5c0-2.76-2.24-5-5-5s-5 2.24-5 5v1c-1.11 0-2 .9-2 2v8c0 1.1.89 2 2 2zm1.6-13c0-1.88 1.52-3.4 3.4-3.4s3.4 1.52 3.4 3.4v1h-6.8V5z"/></symbol>
<symbol id="screen_rotation"    viewBox="0 0 48 48"><path d="M32.97 5.03C39.5 8.13 44.19 14.48 44.9 22h3C46.88 9.68 36.58 0 24 0c-.45 0-.88.04-1.33.07L30.3 7.7l2.67-2.67zM20.46 3.49c-1.17-1.17-3.07-1.17-4.24 0L3.49 16.22c-1.17 1.17-1.17 3.07 0 4.24L27.53 44.5c1.17 1.17 3.07 1.17 4.24 0L44.5 31.77c1.17-1.17 1.17-3.07 0-4.24L20.46 3.49zm9.2 38.89L5.61 18.34 18.34 5.61l24.04 24.04-12.72 12.73zm-14.63.59C8.5 39.87 3.81 33.52 3.1 26h-3C1.12 38.32 11.42 48 24 48c.45 0 .88-.04 1.33-.07L17.7 40.3l-2.67 2.67z"/></symbol>
<symbol id="sd_storage"    viewBox="0 0 48 48"><path d="M36 4H20L8.04 16 8 40c0 2.2 1.8 4 4 4h24c2.2 0 4-1.8 4-4V8c0-2.2-1.8-4-4-4zM24 16h-4V8h4v8zm6 0h-4V8h4v8zm6 0h-4V8h4v8z"/></symbol>
<symbol id="settings_system_daydream"    viewBox="0 0 48 48"><path d="M18 32h13c2.76 0 5-2.24 5-5s-2.24-5-5-5h-.1c-.49-3.39-3.38-6-6.9-6-2.8 0-5.2 1.66-6.32 4.04h-.33C14.34 20.36 12 22.91 12 26c0 3.31 2.69 6 6 6zM42 6H6c-2.21 0-4 1.79-4 4v28c0 2.21 1.79 4 4 4h36c2.21 0 4-1.79 4-4V10c0-2.21-1.79-4-4-4zm0 32.03H6V9.97h36v28.06z"/></symbol>
<symbol id="signal_cellular_0_bar"    viewBox="0 0 48 48"><path fill-opacity=".3" d="M4 44h40V4z"/></symbol>
<symbol id="signal_cellular_1_bar"    viewBox="0 0 48 48"><path fill-opacity=".3" d="M4 44h40V4z"/><path d="M24 24L4 44h20z"/></symbol>
<symbol id="signal_cellular_2_bar"    viewBox="0 0 48 48"><path fill-opacity=".3" d="M4 44h40V4z"/><path d="M28 20L4 44h24z"/></symbol>
<symbol id="signal_cellular_3_bar"    viewBox="0 0 48 48"><path fill-opacity=".3" d="M4 44h40V4z"/><path d="M34 14L4 44h30z"/></symbol>
<symbol id="signal_cellular_4_bar"    viewBox="0 0 48 48"><path d="M4 44h40V4z"/></symbol>
<symbol id="signal_cellular_connected_no_internet_0_bar"    viewBox="0 0 48 48"><path fill-opacity=".3" d="M44 16V4L4 44h32V16z"/><path d="M40 44h4v-4h-4v4zm0-24v16h4V20h-4z"/></symbol>
<symbol id="signal_cellular_connected_no_internet_1_bar"    viewBox="0 0 48 48"><path fill-opacity=".3" d="M44 16V4L4 44h32V16z"/><path d="M40 20v16h4V20h-4zM24 44V24L4 44h20zm16 0h4v-4h-4v4z"/></symbol>
<symbol id="signal_cellular_connected_no_internet_2_bar"    viewBox="0 0 48 48"><path fill-opacity=".3" d="M44 16V4L4 44h32V16z"/><path d="M28 44V20L4 44h24zm12-24v16h4V20h-4zm0 24h4v-4h-4v4z"/></symbol>
<symbol id="signal_cellular_connected_no_internet_3_bar"    viewBox="0 0 48 48"><path fill-opacity=".3" d="M44 16V4L4 44h32V16z"/><path d="M34 44V14L4 44h30zm6-24v16h4V20h-4zm0 24h4v-4h-4v4z"/></symbol>
<symbol id="signal_cellular_connected_no_internet_4_bar"    viewBox="0 0 48 48"><path d="M40 36h4V20h-4v16zm0 8h4v-4h-4v4zM4 44h32V16h8V4L4 44z"/></symbol>
<symbol id="signal_cellular_no_sim"    viewBox="0 0 48 48"><path d="M37.98 10c0-2.21-1.77-4-3.98-4H20l-4.68 4.68L38 33.36 37.98 10zM7.3 7.76L4.76 10.3 10 15.55V38c0 2.21 1.79 4 4 4h20.02c.7 0 1.35-.2 1.92-.51l3.76 3.76 2.54-2.55L7.3 7.76z"/></symbol>
<symbol id="signal_cellular_null"    viewBox="0 0 48 48"><path d="M40 13.66V40H13.66L40 13.66M44 4L4 44h40V4z"/></symbol>
<symbol id="signal_cellular_off"    viewBox="0 0 48 48"><path d="M42 2L24.82 19.18 42 36.36V2zM9.55 9L7 11.54l12.73 12.73L2 42h35.45l4 4L44 43.45 9.55 9z"/></symbol>
<symbol id="signal_wifi_0_bar"    viewBox="0 0 48 48"><path fill-opacity=".3" d="M24.02 42.98L47.28 14c-.9-.68-9.85-8-23.28-8C10.57 6 1.62 13.32.72 14l23.26 28.98.02.02.02-.02z"/></symbol>
<symbol id="signal_wifi_1_bar"    viewBox="0 0 48 48"><path fill-opacity=".3" d="M24.02 42.98L47.28 14c-.9-.68-9.85-8-23.28-8S1.62 13.32.72 14l23.26 28.98.02.02.02-.02z"/><path d="M13.34 29.72l10.65 13.27.01.01.01-.01 10.65-13.27C34.13 29.31 30.06 26 24 26s-10.13 3.31-10.66 3.72z"/></symbol>
<symbol id="signal_wifi_1_bar_lock"    viewBox="0 0 48 48"><path d="M41 19c.7 0 1.4.1 2.1.2l4.2-5.2c-.9-.7-9.8-8-23.3-8S1.6 13.3.7 14L24 43l7-8.7V29c0-5.5 4.5-10 10-10z" opacity=".3"/><path d="M46 32v-3c0-2.8-2.2-5-5-5s-5 2.2-5 5v3c-1.1 0-2 .9-2 2v8c0 1.1.9 2 2 2h10c1.1 0 2-.9 2-2v-8c0-1.1-.9-2-2-2zm-2 0h-6v-3c0-1.7 1.3-3 3-3s3 1.3 3 3v3zm-30.7-2.3l9 11.2L24 43l7-8.8V29c0-.5 0-1 .1-1.4-1.8-.8-4.2-1.6-7.1-1.6-6.1 0-10.1 3.3-10.7 3.7z"/></symbol>
<symbol id="signal_wifi_2_bar"    viewBox="0 0 48 48"><path fill-opacity=".3" d="M24.02 42.98L47.28 14c-.9-.68-9.85-8-23.28-8S1.62 13.32.72 14l23.26 28.98.02.02.02-.02z"/><path d="M9.58 25.03l14.41 17.95.01.02.01-.02 14.41-17.95C37.7 24.47 32.2 20 24 20s-13.7 4.47-14.42 5.03z"/></symbol>
<symbol id="signal_wifi_2_bar_lock"    viewBox="0 0 48 48"><path opacity=".3" d="M41 19c.7 0 1.4.1 2.1.2l4.2-5.2c-.9-.7-9.9-8-23.3-8S1.6 13.3.7 14L24 43l7-8.7V29c0-5.5 4.5-10 10-10z"/><path d="M46 32v-3c0-2.8-2.2-5-5-5s-5 2.2-5 5v3c-1.1 0-2 .9-2 2v8c0 1.1.9 2 2 2h10c1.1 0 2-.9 2-2v-8c0-1.1-.9-2-2-2zm-2 0h-6v-3c0-1.7 1.3-3 3-3s3 1.3 3 3v3zM9.6 25L24 43l7-8.7V29c0-2.6 1-5 2.7-6.8C31.2 21 27.9 20 24 20c-8.2 0-13.7 4.5-14.4 5z"/></symbol>
<symbol id="signal_wifi_3_bar"    viewBox="0 0 48 48"><path fill-opacity=".3" d="M24.02 42.98L47.28 14c-.9-.68-9.85-8-23.28-8S1.62 13.32.72 14l23.26 28.98.02.02.02-.02z"/><path d="M7.07 21.91l16.92 21.07.01.02.02-.02 16.92-21.07C40.08 21.25 33.62 16 24 16c-9.63 0-16.08 5.25-16.93 5.91z"/></symbol>
<symbol id="signal_wifi_3_bar_lock"    viewBox="0 0 48 48"><path opacity=".3" enable-background="new" d="M41 19c.7 0 1.4.1 2.1.2l4.2-5.2c-.9-.7-9.8-8-23.3-8S1.6 13.3.7 14L24 43l7-8.7V29c0-5.5 4.5-10 10-10z"/><path d="M46 32v-3c0-2.8-2.2-5-5-5s-5 2.2-5 5v3c-1.1 0-2 .9-2 2v8c0 1.1.9 2 2 2h10c1.1 0 2-.9 2-2v-8c0-1.1-.9-2-2-2zm-2 0h-6v-3c0-1.7 1.3-3 3-3s3 1.3 3 3v3zM7.1 21.9L24 43l7-8.7V29c0-4.3 2.7-8 6.5-9.4C34.6 18 29.9 16 24 16c-9.6 0-16.1 5.2-16.9 5.9z"/></symbol>
<symbol id="signal_wifi_4_bar"    viewBox="0 0 48 48"><path d="M24.02 42.98L47.28 14c-.9-.68-9.85-8-23.28-8S1.62 13.32.72 14l23.26 28.98.02.02.02-.02z"/></symbol>
<symbol id="signal_wifi_4_bar_lock"    viewBox="0 0 48 48"><path d="M41 19c.72 0 1.41.08 2.09.22L47.28 14c-.9-.68-9.85-8-23.28-8S1.62 13.32.72 14l23.26 28.98.02.02.02-.02 6.98-8.7V29c0-5.52 4.48-10 10-10zm5 13v-3c0-2.76-2.24-5-5-5s-5 2.24-5 5v3c-1.1 0-2 .9-2 2v8c0 1.1.9 2 2 2h10c1.1 0 2-.9 2-2v-8c0-1.1-.9-2-2-2zm-2 0h-6v-3c0-1.66 1.34-3 3-3s3 1.34 3 3v3z"/></symbol>
<symbol id="signal_wifi_off"    viewBox="0 0 48 48"><path d="M47.28 14c-.9-.68-9.85-8-23.28-8-3.01 0-5.78.38-8.3.96L36.36 27.6 47.28 14zM6.55 2.89L4 5.44l4.11 4.11c-4.28 1.97-6.92 4.1-7.39 4.46l23.26 28.98.02.01.02-.02 7.8-9.72 6.63 6.63L41 37.34 6.55 2.89z"/></symbol>
<symbol id="storage"    viewBox="0 0 48 48"><path d="M4 40h40v-8H4v8zm4-6h4v4H8v-4zM4 8v8h40V8H4zm8 6H8v-4h4v4zM4 28h40v-8H4v8zm4-6h4v4H8v-4z"/></symbol>
<symbol id="usb"    viewBox="0 0 48 48"><path d="M30 14v8h2v4h-6V10h4l-6-8-6 8h4v16h-6v-4.14c1.41-.73 2.4-2.16 2.4-3.86 0-2.43-1.97-4.4-4.4-4.4-2.43 0-4.4 1.97-4.4 4.4 0 1.7.99 3.13 2.4 3.86V26c0 2.21 1.79 4 4 4h6v6.1c-1.42.73-2.4 2.19-2.4 3.9 0 2.43 1.97 4.4 4.4 4.4 2.43 0 4.4-1.97 4.4-4.4 0-1.71-.98-3.17-2.4-3.9V30h6c2.21 0 4-1.79 4-4v-4h2v-8h-8z"/></symbol>
<symbol id="wallpaper"    viewBox="0 0 48 48"><path d="M8 8h14V4H8C5.79 4 4 5.79 4 8v14h4V8zm12 18l-8 10h24l-6-8-4.06 5.42L20 26zm14-9c0-1.66-1.34-3-3-3s-3 1.34-3 3 1.34 3 3 3 3-1.34 3-3zm6-13H26v4h14v14h4V8c0-2.21-1.79-4-4-4zm0 36H26v4h14c2.21 0 4-1.79 4-4V26h-4v14zM8 26H4v14c0 2.21 1.79 4 4 4h14v-4H8V26z"/></symbol>
<symbol id="widgets"    viewBox="0 0 48 48"><path d="M26 26v16h16V26H26zM6 42h16V26H6v16zM6 6v16h16V6H6zm27.31-2.63L22 14.69 33.31 26l11.31-11.31L33.31 3.37z"/></symbol>
<symbol id="wifi_lock"    viewBox="0 0 48 48"><path d="M41 19c.56 0 1.09.08 1.63.16L48 12c-6.69-5.02-15-8-24-8S6.69 6.98 0 12l24 32 7-9.33V29c0-5.52 4.48-10 10-10zm5 13v-3c0-2.76-2.24-5-5-5s-5 2.24-5 5v3c-1.1 0-2 .9-2 2v8c0 1.1.9 2 2 2h10c1.1 0 2-.9 2-2v-8c0-1.1-.9-2-2-2zm-2 0h-6v-3c0-1.66 1.34-3 3-3s3 1.34 3 3v3z"/></symbol>
<symbol id="wifi_tethering"    viewBox="0 0 48 48"><path d="M24 22c-2.21 0-4 1.79-4 4s1.79 4 4 4 4-1.79 4-4-1.79-4-4-4zm12 4c0-6.63-5.37-12-12-12s-12 5.37-12 12c0 4.44 2.41 8.3 5.99 10.38l2.02-3.48C17.62 31.51 16 28.96 16 26c0-4.42 3.58-8 8-8s8 3.58 8 8c0 2.96-1.62 5.51-4.01 6.89l2.02 3.48C33.59 34.3 36 30.44 36 26zM24 6C12.95 6 4 14.95 4 26c0 7.39 4.02 13.83 9.99 17.29l2-3.46C11.22 37.07 8 31.91 8 26c0-8.84 7.16-16 16-16s16 7.16 16 16c0 5.91-3.22 11.07-7.99 13.84l2 3.46C39.98 39.83 44 33.39 44 26c0-11.05-8.96-20-20-20z"/></symbol>
<view id="access_alarm-view" viewBox="0 0 48 48" />
<view id="access_alarms-view" viewBox="0 48 48 48" />
<view id="access_time-view" viewBox="0 96 48 48" />
<view id="add_alarm-view" viewBox="0 144 48 48" />
<view id="airplanemode_active-view" viewBox="0 192 48 48" />
<view id="airplanemode_inactive-view" viewBox="0 432 48 48" />
<view id="battery_20-view" viewBox="0 240 48 48" />
<view id="battery_30-view" viewBox="0 288 48 48" />
<view id="battery_50-view" viewBox="0 336 48 48" />
<view id="battery_60-view" viewBox="0 384 48 48" />
<view id="battery_80-view" viewBox="0 480 48 48" />
<view id="battery_90-view" viewBox="0 528 48 48" />
<view id="battery_alert-view" viewBox="0 576 48 48" />
<view id="battery_charging_20-view" viewBox="0 624 48 48" />
<view id="battery_charging_30-view" viewBox="0 672 48 48" />
<view id="battery_charging_50-view" viewBox="0 720 48 48" />
<view id="battery_charging_60-view" viewBox="0 768 48 48" />
<view id="battery_charging_80-view" viewBox="0 864 48 48" />
<view id="battery_charging_90-view" viewBox="0 816 48 48" />
<view id="battery_charging_full-view" viewBox="0 912 48 48" />
<view id="battery_full-view" viewBox="0 960 48 48" />
<view id="battery_std-view" viewBox="0 1008 48 48" />
<view id="battery_unknown-view" viewBox="0 1200 48 48" />
<view id="bluetooth-view" viewBox="0 1104 48 48" />
<view id="bluetooth_connected-view" viewBox="0 1056 48 48" />
<view id="bluetooth_disabled-view" viewBox="0 1152 48 48" />
<view id="bluetooth_searching-view" viewBox="0 1248 48 48" />
<view id="brightness_auto-view" viewBox="0 1296 48 48" />
<view id="brightness_high-view" viewBox="0 1344 48 48" />
<view id="brightness_low-view" viewBox="0 1392 48 48" />
<view id="brightness_medium-view" viewBox="0 1440 48 48" />
<view id="data_usage-view" viewBox="0 1488 48 48" />
<view id="developer_mode-view" viewBox="0 1536 48 48" />
<view id="devices-view" viewBox="0 1584 48 48" />
<view id="dvr-view" viewBox="0 1632 48 48" />
<view id="gps_fixed-view" viewBox="0 1680 48 48" />
<view id="gps_not_fixed-view" viewBox="0 1728 48 48" />
<view id="gps_off-view" viewBox="0 1776 48 48" />
<view id="graphic_eq-view" viewBox="0 1872 48 48" />
<view id="location_disabled-view" viewBox="0 1824 48 48" />
<view id="location_searching-view" viewBox="0 2112 48 48" />
<view id="network_cell-view" viewBox="0 1920 48 48" />
<view id="network_wifi-view" viewBox="0 1968 48 48" />
<view id="nfc-view" viewBox="0 2016 48 48" />
<view id="screen_lock_landscape-view" viewBox="0 2064 48 48" />
<view id="screen_lock_portrait-view" viewBox="0 2160 48 48" />
<view id="screen_lock_rotation-view" viewBox="0 2208 48 48" />
<view id="screen_rotation-view" viewBox="0 2256 48 48" />
<view id="sd_storage-view" viewBox="0 2448 48 48" />
<view id="settings_system_daydream-view" viewBox="0 2352 48 48" />
<view id="signal_cellular_0_bar-view" viewBox="0 2304 48 48" />
<view id="signal_cellular_1_bar-view" viewBox="0 2400 48 48" />
<view id="signal_cellular_2_bar-view" viewBox="0 2496 48 48" />
<view id="signal_cellular_3_bar-view" viewBox="0 2544 48 48" />
<view id="signal_cellular_4_bar-view" viewBox="0 2592 48 48" />
<view id="signal_cellular_connected_no_internet_0_bar-view" viewBox="0 2640 48 48" />
<view id="signal_cellular_connected_no_internet_1_bar-view" viewBox="0 2688 48 48" />
<view id="signal_cellular_connected_no_internet_2_bar-view" viewBox="0 2736 48 48" />
<view id="signal_cellular_connected_no_internet_3_bar-view" viewBox="0 2784 48 48" />
<view id="signal_cellular_connected_no_internet_4_bar-view" viewBox="0 2832 48 48" />
<view id="signal_cellular_no_sim-view" viewBox="0 2880 48 48" />
<view id="signal_cellular_null-view" viewBox="0 2928 48 48" />
<view id="signal_cellular_off-view" viewBox="0 2976 48 48" />
<view id="signal_wifi_0_bar-view" viewBox="0 3024 48 48" />
<view id="signal_wifi_1_bar-view" viewBox="0 3072 48 48" />
<view id="signal_wifi_1_bar_lock-view" viewBox="0 3120 48 48" />
<view id="signal_wifi_2_bar-view" viewBox="0 3168 48 48" />
<view id="signal_wifi_2_bar_lock-view" viewBox="0 3216 48 48" />
<view id="signal_wifi_3_bar-view" viewBox="0 3264 48 48" />
<view id="signal_wifi_3_bar_lock-view" viewBox="0 3312 48 48" />
<view id="signal_wifi_4_bar-view" viewBox="0 3360 48 48" />
<view id="signal_wifi_4_bar_lock-view" viewBox="0 3408 48 48" />
<view id="signal_wifi_off-view" viewBox="0 3456 48 48" />
<view id="storage-view" viewBox="0 3504 48 48" />
<view id="usb-view" viewBox="0 3552 48 48" />
<view id="wallpaper-view" viewBox="0 3600 48 48" />
<view id="widgets-view" viewBox="0 3648 48 48" />
<view id="wifi_lock-view" viewBox="0 3696 48 48" />
<view id="wifi_tethering-view" viewBox="0 3744 48 48" />
<use xlink:href="#access_alarm" width="48" height="48" x="0" y="0"></use>
<use xlink:href="#access_alarms" width="48" height="48" x="0" y="48"></use>
<use xlink:href="#access_time" width="48" height="48" x="0" y="96"></use>
<use xlink:href="#add_alarm" width="48" height="48" x="0" y="144"></use>
<use xlink:href="#airplanemode_active" width="48" height="48" x="0" y="192"></use>
<use xlink:href="#airplanemode_inactive" width="48" height="48" x="0" y="432"></use>
<use xlink:href="#battery_20" width="48" height="48" x="0" y="240"></use>
<use xlink:href="#battery_30" width="48" height="48" x="0" y="288"></use>
<use xlink:href="#battery_50" width="48" height="48" x="0" y="336"></use>
<use xlink:href="#battery_60" width="48" height="48" x="0" y="384"></use>
<use xlink:href="#battery_80" width="48" height="48" x="0" y="480"></use>
<use xlink:href="#battery_90" width="48" height="48" x="0" y="528"></use>
<use xlink:href="#battery_alert" width="48" height="48" x="0" y="576"></use>
<use xlink:href="#battery_charging_20" width="48" height="48" x="0" y="624"></use>
<use xlink:href="#battery_charging_30" width="48" height="48" x="0" y="672"></use>
<use xlink:href="#battery_charging_50" width="48" height="48" x="0" y="720"></use>
<use xlink:href="#battery_charging_60" width="48" height="48" x="0" y="768"></use>
<use xlink:href="#battery_charging_80" width="48" height="48" x="0" y="864"></use>
<use xlink:href="#battery_charging_90" width="48" height="48" x="0" y="816"></use>
<use xlink:href="#battery_charging_full" width="48" height="48" x="0" y="912"></use>
<use xlink:href="#battery_full" width="48" height="48" x="0" y="960"></use>
<use xlink:href="#battery_std" width="48" height="48" x="0" y="1008"></use>
<use xlink:href="#battery_unknown" width="48" height="48" x="0" y="1200"></use>
<use xlink:href="#bluetooth" width="48" height="48" x="0" y="1104"></use>
<use xlink:href="#bluetooth_connected" width="48" height="48" x="0" y="1056"></use>
<use xlink:href="#bluetooth_disabled" width="48" height="48" x="0" y="1152"></use>
<use xlink:href="#bluetooth_searching" width="48" height="48" x="0" y="1248"></use>
<use xlink:href="#brightness_auto" width="48" height="48" x="0" y="1296"></use>
<use xlink:href="#brightness_high" width="48" height="48" x="0" y="1344"></use>
<use xlink:href="#brightness_low" width="48" height="48" x="0" y="1392"></use>
<use xlink:href="#brightness_medium" width="48" height="48" x="0" y="1440"></use>
<use xlink:href="#data_usage" width="48" height="48" x="0" y="1488"></use>
<use xlink:href="#developer_mode" width="48" height="48" x="0" y="1536"></use>
<use xlink:href="#devices" width="48" height="48" x="0" y="1584"></use>
<use xlink:href="#dvr" width="48" height="48" x="0" y="1632"></use>
<use xlink:href="#gps_fixed" width="48" height="48" x="0" y="1680"></use>
<use xlink:href="#gps_not_fixed" width="48" height="48" x="0" y="1728"></use>
<use xlink:href="#gps_off" width="48" height="48" x="0" y="1776"></use>
<use xlink:href="#graphic_eq" width="48" height="48" x="0" y="1872"></use>
<use xlink:href="#location_disabled" width="48" height="48" x="0" y="1824"></use>
<use xlink:href="#location_searching" width="48" height="48" x="0" y="2112"></use>
<use xlink:href="#network_cell" width="48" height="48" x="0" y="1920"></use>
<use xlink:href="#network_wifi" width="48" height="48" x="0" y="1968"></use>
<use xlink:href="#nfc" width="48" height="48" x="0" y="2016"></use>
<use xlink:href="#screen_lock_landscape" width="48" height="48" x="0" y="2064"></use>
<use xlink:href="#screen_lock_portrait" width="48" height="48" x="0" y="2160"></use>
<use xlink:href="#screen_lock_rotation" width="48" height="48" x="0" y="2208"></use>
<use xlink:href="#screen_rotation" width="48" height="48" x="0" y="2256"></use>
<use xlink:href="#sd_storage" width="48" height="48" x="0" y="2448"></use>
<use xlink:href="#settings_system_daydream" width="48" height="48" x="0" y="2352"></use>
<use xlink:href="#signal_cellular_0_bar" width="48" height="48" x="0" y="2304"></use>
<use xlink:href="#signal_cellular_1_bar" width="48" height="48" x="0" y="2400"></use>
<use xlink:href="#signal_cellular_2_bar" width="48" height="48" x="0" y="2496"></use>
<use xlink:href="#signal_cellular_3_bar" width="48" height="48" x="0" y="2544"></use>
<use xlink:href="#signal_cellular_4_bar" width="48" height="48" x="0" y="2592"></use>
<use xlink:href="#signal_cellular_connected_no_internet_0_bar" width="48" height="48" x="0" y="2640"></use>
<use xlink:href="#signal_cellular_connected_no_internet_1_bar" width="48" height="48" x="0" y="2688"></use>
<use xlink:href="#signal_cellular_connected_no_internet_2_bar" width="48" height="48" x="0" y="2736"></use>
<use xlink:href="#signal_cellular_connected_no_internet_3_bar" width="48" height="48" x="0" y="2784"></use>
<use xlink:href="#signal_cellular_connected_no_internet_4_bar" width="48" height="48" x="0" y="2832"></use>
<use xlink:href="#signal_cellular_no_sim" width="48" height="48" x="0" y="2880"></use>
<use xlink:href="#signal_cellular_null" width="48" height="48" x="0" y="2928"></use>
<use xlink:href="#signal_cellular_off" width="48" height="48" x="0" y="2976"></use>
<use xlink:href="#signal_wifi_0_bar" width="48" height="48" x="0" y="3024"></use>
<use xlink:href="#signal_wifi_1_bar" width="48" height="48" x="0" y="3072"></use>
<use xlink:href="#signal_wifi_1_bar_lock" width="48" height="48" x="0" y="3120"></use>
<use xlink:href="#signal_wifi_2_bar" width="48" height="48" x="0" y="3168"></use>
<use xlink:href="#signal_wifi_2_bar_lock" width="48" height="48" x="0" y="3216"></use>
<use xlink:href="#signal_wifi_3_bar" width="48" height="48" x="0" y="3264"></use>
<use xlink:href="#signal_wifi_3_bar_lock" width="48" height="48" x="0" y="3312"></use>
<use xlink:href="#signal_wifi_4_bar" width="48" height="48" x="0" y="3360"></use>
<use xlink:href="#signal_wifi_4_bar_lock" width="48" height="48" x="0" y="3408"></use>
<use xlink:href="#signal_wifi_off" width="48" height="48" x="0" y="3456"></use>
<use xlink:href="#storage" width="48" height="48" x="0" y="3504"></use>
<use xlink:href="#usb" width="48" height="48" x="0" y="3552"></use>
<use xlink:href="#wallpaper" width="48" height="48" x="0" y="3600"></use>
<use xlink:href="#widgets" width="48" height="48" x="0" y="3648"></use>
<use xlink:href="#wifi_lock" width="48" height="48" x="0" y="3696"></use>
<use xlink:href="#wifi_tethering" width="48" height="48" x="0" y="3744"></use>
</svg>