<svg xmlns="http://www.w3.org/2000/svg" xmlns:xlink="http://www.w3.org/1999/xlink"><defs></defs>
<symbol id="apps"    viewBox="0 0 48 48"><path d="M8 16h8V8H8v8zm12 24h8v-8h-8v8zM8 40h8v-8H8v8zm0-12h8v-8H8v8zm12 0h8v-8h-8v8zM32 8v8h8V8h-8zm-12 8h8V8h-8v8zm12 12h8v-8h-8v8zm0 12h8v-8h-8v8z"/></symbol>
<symbol id="arrow_back"    viewBox="0 0 48 48"><path d="M40 22H15.66l11.17-11.17L24 8 8 24l16 16 2.83-2.83L15.66 26H40v-4z"/></symbol>
<symbol id="arrow_downward"    viewBox="0 0 48 48"><path fill="#010101" d="M40 24l-2.82-2.82L26 32.34V8h-4v24.34L10.84 21.16 8 24l16 16 16-16z"/></symbol>
<symbol id="arrow_drop_down"    viewBox="0 0 48 48"><path d="M14 20l10 10 10-10z"/></symbol>
<symbol id="arrow_drop_down_circle"    viewBox="0 0 48 48"><path d="M24 4C12.95 4 4 12.95 4 24s8.95 20 20 20 20-8.95 20-20S35.05 4 24 4zm0 24l-8-8h16l-8 8z"/></symbol>
<symbol id="arrow_drop_up"    viewBox="0 0 48 48"><path d="M14 28l10-10 10 10z"/></symbol>
<symbol id="arrow_forward"    viewBox="0 0 48 48"><path d="M24 8l-2.83 2.83L32.34 22H8v4h24.34L21.17 37.17 24 40l16-16z"/></symbol>
<symbol id="arrow_upward"    viewBox="0 0 48 48"><path d="M8 24l2.83 2.83L22 15.66V40h4V15.66l11.17 11.17L40 24 24 8 8 24z"/></symbol>
<symbol id="cancel"    viewBox="0 0 48 48"><path d="M24 4C12.95 4 4 12.95 4 24s8.95 20 20 20 20-8.95 20-20S35.05 4 24 4zm10 27.17L31.17 34 24 26.83 16.83 34 14 31.17 21.17 24 14 16.83 16.83 14 24 21.17 31.17 14 34 16.83 26.83 24 34 31.17z"/></symbol>
<symbol id="check"    viewBox="0 0 48 48"><path d="M18 32.34L9.66 24l-2.83 2.83L18 38l24-24-2.83-2.83z"/></symbol>
<symbol id="chevron_left"    viewBox="0 0 48 48"><path d="M30.83 14.83L28 12 16 24l12 12 2.83-2.83L21.66 24z"/></symbol>
<symbol id="chevron_right"    viewBox="0 0 48 48"><path d="M20 12l-2.83 2.83L26.34 24l-9.17 9.17L20 36l12-12z"/></symbol>
<symbol id="close"    viewBox="0 0 48 48"><path d="M38 12.83L35.17 10 24 21.17 12.83 10 10 12.83 21.17 24 10 35.17 12.83 38 24 26.83 35.17 38 38 35.17 26.83 24z"/></symbol>
<symbol id="expand_less"    viewBox="0 0 48 48"><path d="M24 16L12 28l2.83 2.83L24 21.66l9.17 9.17L36 28z"/></symbol>
<symbol id="expand_more"    viewBox="0 0 48 48"><path d="M33.17 17.17L24 26.34l-9.17-9.17L12 20l12 12 12-12z"/></symbol>
<symbol id="first_page"    viewBox="0 0 48 48"><path d="M36.82 33.18L27.64 24l9.18-9.18L34 12 22 24l12 12zM12 12h4v24h-4z"/></symbol>
<symbol id="fullscreen"    viewBox="0 0 48 48"><path d="M14 28h-4v10h10v-4h-6v-6zm-4-8h4v-6h6v-4H10v10zm24 14h-6v4h10V28h-4v6zm-6-24v4h6v6h4V10H28z"/></symbol>
<symbol id="fullscreen_exit"    viewBox="0 0 48 48"><path d="M10 32h6v6h4V28H10v4zm6-16h-6v4h10V10h-4v6zm12 22h4v-6h6v-4H28v10zm4-22v-6h-4v10h10v-4h-6z"/></symbol>
<symbol id="last_page"    viewBox="0 0 48 48"><path d="M11.18 14.82L20.36 24l-9.18 9.18L14 36l12-12-12-12zM32 12h4v24h-4z"/></symbol>
<symbol id="menu"    viewBox="0 0 48 48"><path d="M6 36h36v-4H6v4zm0-10h36v-4H6v4zm0-14v4h36v-4H6z"/></symbol>
<symbol id="more_horiz"    viewBox="0 0 48 48"><path d="M12 20c-2.21 0-4 1.79-4 4s1.79 4 4 4 4-1.79 4-4-1.79-4-4-4zm24 0c-2.21 0-4 1.79-4 4s1.79 4 4 4 4-1.79 4-4-1.79-4-4-4zm-12 0c-2.21 0-4 1.79-4 4s1.79 4 4 4 4-1.79 4-4-1.79-4-4-4z"/></symbol>
<symbol id="more_vert"    viewBox="0 0 48 48"><path d="M24 16c2.21 0 4-1.79 4-4s-1.79-4-4-4-4 1.79-4 4 1.79 4 4 4zm0 4c-2.21 0-4 1.79-4 4s1.79 4 4 4 4-1.79 4-4-1.79-4-4-4zm0 12c-2.21 0-4 1.79-4 4s1.79 4 4 4 4-1.79 4-4-1.79-4-4-4z"/></symbol>
<symbol id="refresh"    viewBox="0 0 48 48"><path d="M35.3 12.7C32.41 9.8 28.42 8 24 8 15.16 8 8.02 15.16 8.02 24S15.16 40 24 40c7.45 0 13.69-5.1 15.46-12H35.3c-1.65 4.66-6.07 8-11.3 8-6.63 0-12-5.37-12-12s5.37-12 12-12c3.31 0 6.28 1.38 8.45 3.55L26 22h14V8l-4.7 4.7z"/></symbol>
<symbol id="subdirectory_arrow_left"    viewBox="0 0 48 48"><path d="M20 18l2.83 2.83L15.66 28H36V6h4v26H15.66l7.17 7.17L20 42 8 30l12-12z"/></symbol>
<symbol id="subdirectory_arrow_right"    viewBox="0 0 48 48"><path d="M-31 29l-12 12-2.83-2.83 7.17-7.17H-61V7h4v20h18.34l-7.17-7.17L-43 17l12 12zm71 1L28 42l-2.83-2.83L32.34 32H8V6h4v22h20.34l-7.17-7.17L28 18l12 12z"/></symbol>
<symbol id="unfold_less"    viewBox="0 0 48 48"><path d="M14.83 37.17L17.66 40 24 33.66 30.34 40l2.83-2.83L24 28l-9.17 9.17zm18.34-26.34L30.34 8 24 14.34 17.66 8l-2.83 2.83L24 20l9.17-9.17z"/></symbol>
<symbol id="unfold_more"    viewBox="0 0 48 48"><path d="M24 11.66L30.34 18l2.83-2.83L24 6l-9.17 9.17L17.66 18 24 11.66zm0 24.68L17.66 30l-2.83 2.83L24 42l9.17-9.17L30.34 30 24 36.34z"/></symbol>
<view id="apps-view" viewBox="0 0 48 48" />
<view id="arrow_back-view" viewBox="0 48 48 48" />
<view id="arrow_downward-view" viewBox="0 96 48 48" />
<view id="arrow_drop_down-view" viewBox="0 144 48 48" />
<view id="arrow_drop_down_circle-view" viewBox="0 192 48 48" />
<view id="arrow_drop_up-view" viewBox="0 240 48 48" />
<view id="arrow_forward-view" viewBox="0 288 48 48" />
<view id="arrow_upward-view" viewBox="0 336 48 48" />
<view id="cancel-view" viewBox="0 384 48 48" />
<view id="check-view" viewBox="0 432 48 48" />
<view id="chevron_left-view" viewBox="0 480 48 48" />
<view id="chevron_right-view" viewBox="0 528 48 48" />
<view id="close-view" viewBox="0 576 48 48" />
<view id="expand_less-view" viewBox="0 624 48 48" />
<view id="expand_more-view" viewBox="0 672 48 48" />
<view id="first_page-view" viewBox="0 768 48 48" />
<view id="fullscreen-view" viewBox="0 720 48 48" />
<view id="fullscreen_exit-view" viewBox="0 816 48 48" />
<view id="last_page-view" viewBox="0 864 48 48" />
<view id="menu-view" viewBox="0 912 48 48" />
<view id="more_horiz-view" viewBox="0 960 48 48" />
<view id="more_vert-view" viewBox="0 1008 48 48" />
<view id="refresh-view" viewBox="0 1056 48 48" />
<view id="subdirectory_arrow_left-view" viewBox="0 1104 48 48" />
<view id="subdirectory_arrow_right-view" viewBox="0 1152 48 48" />
<view id="unfold_less-view" viewBox="0 1200 48 48" />
<view id="unfold_more-view" viewBox="0 1248 48 48" />
<use xlink:href="#apps" width="48" height="48" x="0" y="0"></use>
<use xlink:href="#arrow_back" width="48" height="48" x="0" y="48"></use>
<use xlink:href="#arrow_downward" width="48" height="48" x="0" y="96"></use>
<use xlink:href="#arrow_drop_down" width="48" height="48" x="0" y="144"></use>
<use xlink:href="#arrow_drop_down_circle" width="48" height="48" x="0" y="192"></use>
<use xlink:href="#arrow_drop_up" width="48" height="48" x="0" y="240"></use>
<use xlink:href="#arrow_forward" width="48" height="48" x="0" y="288"></use>
<use xlink:href="#arrow_upward" width="48" height="48" x="0" y="336"></use>
<use xlink:href="#cancel" width="48" height="48" x="0" y="384"></use>
<use xlink:href="#check" width="48" height="48" x="0" y="432"></use>
<use xlink:href="#chevron_left" width="48" height="48" x="0" y="480"></use>
<use xlink:href="#chevron_right" width="48" height="48" x="0" y="528"></use>
<use xlink:href="#close" width="48" height="48" x="0" y="576"></use>
<use xlink:href="#expand_less" width="48" height="48" x="0" y="624"></use>
<use xlink:href="#expand_more" width="48" height="48" x="0" y="672"></use>
<use xlink:href="#first_page" width="48" height="48" x="0" y="768"></use>
<use xlink:href="#fullscreen" width="48" height="48" x="0" y="720"></use>
<use xlink:href="#fullscreen_exit" width="48" height="48" x="0" y="816"></use>
<use xlink:href="#last_page" width="48" height="48" x="0" y="864"></use>
<use xlink:href="#menu" width="48" height="48" x="0" y="912"></use>
<use xlink:href="#more_horiz" width="48" height="48" x="0" y="960"></use>
<use xlink:href="#more_vert" width="48" height="48" x="0" y="1008"></use>
<use xlink:href="#refresh" width="48" height="48" x="0" y="1056"></use>
<use xlink:href="#subdirectory_arrow_left" width="48" height="48" x="0" y="1104"></use>
<use xlink:href="#subdirectory_arrow_right" width="48" height="48" x="0" y="1152"></use>
<use xlink:href="#unfold_less" width="48" height="48" x="0" y="1200"></use>
<use xlink:href="#unfold_more" width="48" height="48" x="0" y="1248"></use>
</svg>