<svg xmlns="http://www.w3.org/2000/svg" xmlns:xlink="http://www.w3.org/1999/xlink"><defs></defs>
<symbol id="ac_unit"    viewBox="0 0 48 48"><path d="M44 22h-8.34l6.48-6.49-2.83-2.82L30 22h-4v-4l9.31-9.31-2.82-2.83L26 12.34V4h-4v8.34l-6.49-6.48-2.82 2.83L22 18v4h-4l-9.31-9.31-2.83 2.82L12.34 22H4v4h8.34l-6.48 6.49 2.83 2.82L18 26h4v4l-9.31 9.31 2.82 2.83L22 35.66V44h4v-8.34l6.49 6.48 2.82-2.83L26 30v-4h4l9.31 9.31 2.83-2.82L35.66 26H44z"/></symbol>
<symbol id="airport_shuttle"    viewBox="0 0 48 48"><path d="M34 10H6c-2.21 0-4 1.79-4 4v18h4c0 3.31 2.69 6 6 6s6-2.69 6-6h11c0 3.31 2.69 6 6 6s6-2.69 6-6h5V22L34 10zM6 22v-8h8v8H6zm6 13c-1.66 0-3-1.34-3-3s1.34-3 3-3 3 1.34 3 3-1.34 3-3 3zm14-13h-8v-8h8v8zm9 13c-1.66 0-3-1.34-3-3s1.34-3 3-3 3 1.34 3 3-1.34 3-3 3zm-5-13v-8h2l8 8H30z"/></symbol>
<symbol id="all_inclusive"    viewBox="0 0 48 48"><path d="M37.2 13.25c-2.88 0-5.6 1.12-7.55 3.07l-5.65 5-.01-.01-3.03 2.67.02.02-5.39 4.78c-1.28 1.27-2.98 1.97-4.79 1.97-3.74 0-6.78-3.03-6.78-6.75s3.04-6.75 6.78-6.75c1.81 0 3.51.7 4.88 2.06l2.27 2.01 3.02-2.67-2.53-2.24c-2.04-2.03-4.75-3.15-7.64-3.15C4.84 13.25 0 18.07 0 24s4.84 10.75 10.8 10.75c2.88 0 5.59-1.12 7.55-3.06L24 26.68l.01.01 3.02-2.68-.01-.01 5.39-4.77c1.28-1.28 2.98-1.98 4.79-1.98 3.74 0 6.78 3.03 6.78 6.75s-3.04 6.75-6.78 6.75c-1.81 0-3.51-.7-4.88-2.05l-2.27-2.01-3.02 2.68 2.53 2.24c2.04 2.03 4.75 3.14 7.63 3.14C43.16 34.75 48 29.93 48 24s-4.84-10.75-10.8-10.75z"/></symbol>
<symbol id="beach_access"    viewBox="0 0 48 48"><path d="M26.248 29.11l2.863-2.862 12.9 12.89-2.86 2.864zm8.592-11.45l5.73-5.73c-7.9-7.9-20.7-7.91-28.61-.02 7.87-2.61 16.62-.52 22.88 5.75zm-22.93-5.71c-7.88 7.91-7.88 20.71.02 28.61l5.73-5.73c-6.27-6.25-8.36-15-5.75-22.88zm.04-.03c-.01.01-.01.01-.02.01-.01.01-.01.01-.01.02-.75 6.02 2.34 13.77 8.61 20.03l11.46-11.46c-6.28-6.26-14.02-9.36-20.04-8.6z"/></symbol>
<symbol id="business_center"    viewBox="0 0 48 48"><path d="M20 32v-2H6.02L6 38c0 2.22 1.78 4 4 4h28c2.22 0 4-1.78 4-4v-8H28v2h-8zm20-18h-8.02v-4l-4-4h-8L16 10v4H8.01c-2.21 0-4 1.79-4 4v6c0 2.21 1.79 4 4 4h12v-4h8v4h12c2.21 0 4-1.79 4-4v-6c-.01-2.21-1.8-4-4.01-4zm-12.01 0h-8v-4h8v4z"/></symbol>
<symbol id="casino"    viewBox="0 0 48 48"><path d="M38 6H10c-2.21 0-4 1.79-4 4v28c0 2.21 1.79 4 4 4h28c2.21 0 4-1.79 4-4V10c0-2.21-1.79-4-4-4zM15 36c-1.66 0-3-1.34-3-3s1.34-3 3-3 3 1.34 3 3-1.34 3-3 3zm0-18c-1.66 0-3-1.34-3-3s1.34-3 3-3 3 1.34 3 3-1.34 3-3 3zm9 9c-1.66 0-3-1.34-3-3s1.34-3 3-3 3 1.34 3 3-1.34 3-3 3zm9 9c-1.66 0-3-1.34-3-3s1.34-3 3-3 3 1.34 3 3-1.34 3-3 3zm0-18c-1.66 0-3-1.34-3-3s1.34-3 3-3 3 1.34 3 3-1.34 3-3 3z"/></symbol>
<symbol id="child_care"    viewBox="0 0 48 48"><circle cx="29" cy="21" r="2.5"/><circle cx="19" cy="21" r="2.5"/><path d="M45.89 25.33c.07-.43.11-.88.11-1.33s-.04-.9-.11-1.33c-.51-3.02-2.72-5.47-5.61-6.34-1.05-2.23-2.56-4.21-4.39-5.82C32.72 7.71 28.56 6 24 6s-8.72 1.71-11.89 4.51c-1.83 1.62-3.33 3.59-4.39 5.82-2.89.86-5.1 3.31-5.61 6.34-.07.43-.11.88-.11 1.33s.04.9.11 1.33c.51 3.02 2.72 5.47 5.61 6.34 1.04 2.21 2.53 4.17 4.34 5.78C15.24 40.27 19.41 42 24 42s8.76-1.73 11.94-4.55c1.81-1.61 3.3-3.57 4.34-5.78 2.89-.87 5.1-3.32 5.61-6.34zM38 28c-.2 0-.39-.03-.57-.06-.39 1.33-.98 2.58-1.72 3.72C33.2 35.47 28.89 38 24 38s-9.2-2.53-11.7-6.34c-.75-1.14-1.33-2.39-1.72-3.72-.19.03-.38.06-.58.06-2.2 0-4-1.8-4-4s1.8-4 4-4c.2 0 .39.03.57.06.39-1.33.98-2.58 1.72-3.72C14.8 12.53 19.11 10 24 10s9.2 2.53 11.7 6.34c.75 1.14 1.33 2.39 1.72 3.72.19-.03.38-.06.58-.06 2.2 0 4 1.8 4 4s-1.8 4-4 4zm-23 0c1.52 3.53 4.97 6 9 6s7.48-2.47 9-6H15z"/></symbol>
<symbol id="child_friendly"    viewBox="0 0 48 48"><path d="M26 4v16h16c0-8.84-7.16-16-16-16zm12.65 27.78C40.74 29.07 42 25.69 42 22H12.88l-1.9-4H4v4h4.45s3.78 8.14 4.24 8.83C10.49 32.02 9 34.33 9 37c0 3.87 3.13 7 7 7 3.53 0 6.43-2.61 6.92-6h4.16c.49 3.39 3.39 6 6.92 6 3.87 0 7-3.13 7-7 0-2.08-.91-3.94-2.35-5.22zM16 40c-1.66 0-3-1.34-3-3s1.34-3 3-3 3 1.34 3 3-1.34 3-3 3zm18 0c-1.66 0-3-1.34-3-3s1.34-3 3-3 3 1.34 3 3-1.34 3-3 3z"/></symbol>
<symbol id="fitness_center"    viewBox="0 0 48 48"><path d="M41.14 29.71L44 26.86 41.14 24 34 31.14 16.86 14 24 6.86 21.14 4l-2.85 2.86L15.43 4l-4.29 4.29-2.85-2.86-2.86 2.86 2.86 2.85L4 15.43l2.86 2.86L4 21.14 6.86 24 14 16.86 31.14 34 24 41.14 26.86 44l2.85-2.86L32.57 44l4.29-4.29 2.85 2.86 2.86-2.86-2.86-2.85L44 32.57z"/></symbol>
<symbol id="free_breakfast"    viewBox="0 0 48 48"><path d="M40 6H8v20c0 4.42 3.58 8 8 8h12c4.42 0 8-3.58 8-8v-6h4c2.21 0 4-1.79 4-4v-6c0-2.21-1.79-4-4-4zm0 10h-4v-6h4v6zM8 38h32v4H8z"/></symbol>
<symbol id="golf_course"    viewBox="0 0 48 48"><path d="M39 36c-1.66 0-3 1.34-3 3s1.34 3 3 3 3-1.34 3-3-1.34-3-3-3zm-5-24.15L18 4v36h-4v-3.46c-3.58.69-6 1.98-6 3.46 0 2.21 5.37 4 12 4s12-1.79 12-4c0-1.98-4.33-3.62-10-3.94v-18.1l12-6.11z"/></symbol>
<symbol id="hot_tub"    viewBox="0 0 48 48"><circle cx="14" cy="12" r="4"/><path d="M22.3 24c-.61-.45-1.17-.93-1.64-1.44l-2.8-3.1c-.38-.42-.86-.76-1.38-1-.58-.28-1.24-.46-1.92-.46h-.06c-2.48 0-4.5 2.02-4.5 4.5V24H4v16c0 2.21 1.79 4 4 4h32c2.21 0 4-1.79 4-4V24H22.3zM14 40h-4V28h4v12zm8 0h-4V28h4v12zm8 0h-4V28h4v12zm8 0h-4V28h4v12zm-.69-28.29l-.14-.13c-1.15-1.23-1.63-2.82-1.34-4.39L36 6h-3.78l-.13.85c-.41 2.72.54 5.43 2.6 7.43l.13.12c1.15 1.23 1.64 2.83 1.35 4.4l-.22 1.2h3.83l.13-.85c.4-2.72-.54-5.43-2.6-7.44zm-8 0l-.14-.13c-1.15-1.23-1.63-2.82-1.34-4.39L28 6h-3.78l-.13.85c-.41 2.72.54 5.43 2.6 7.43l.13.12c1.15 1.23 1.64 2.83 1.35 4.4l-.22 1.2h3.83l.13-.85c.4-2.72-.54-5.43-2.6-7.44z"/></symbol>
<symbol id="kitchen"    viewBox="0 0 48 48"><path d="M36 4.02L12 4C9.79 4 8 5.79 8 8v32c0 2.21 1.79 4 4 4h24c2.21 0 4-1.79 4-4V8c0-2.21-1.79-3.98-4-3.98zM36 40H12V21.95h24V40zm0-22H12V8h24v10zm-20-8h4v6h-4zm0 14h4v10h-4z"/></symbol>
<symbol id="pool"    viewBox="0 0 48 48"><path d="M44 42c-2.22 0-3.46-.74-4.36-1.29-.74-.44-1.19-.71-2.3-.71-1.11 0-1.56.27-2.3.71-.9.54-2.14 1.29-4.36 1.29s-3.46-.74-4.36-1.29c-.74-.45-1.19-.71-2.3-.71-1.11 0-1.56.27-2.3.71-.92.55-2.16 1.29-4.38 1.29-2.22 0-3.46-.74-4.36-1.28-.74-.45-1.19-.72-2.31-.72s-1.56.27-2.31.72C7.46 41.26 6.22 42 4 42v-4c1.11 0 1.56-.27 2.31-.72.9-.54 2.14-1.28 4.36-1.28s3.46.74 4.36 1.28c.74.45 1.19.72 2.31.72 1.11 0 1.56-.27 2.3-.71.9-.54 2.14-1.29 4.36-1.29s3.46.74 4.36 1.29c.74.45 1.19.71 2.3.71s1.56-.27 2.3-.71c.9-.54 2.14-1.29 4.36-1.29s3.46.74 4.36 1.29c.76.44 1.21.71 2.32.71v4zm0-9c-2.22 0-3.46-.74-4.36-1.29-.74-.44-1.19-.71-2.3-.71-1.11 0-1.56.27-2.3.71-.9.54-2.14 1.29-4.36 1.29s-3.46-.74-4.36-1.29c-.74-.45-1.19-.71-2.3-.71-1.11 0-1.56.27-2.3.71-.92.55-2.16 1.29-4.38 1.29-2.22 0-3.46-.74-4.36-1.28-.74-.45-1.19-.72-2.31-.72s-1.56.27-2.31.72C7.46 32.26 6.22 33 4 33v-4c1.11 0 1.56-.27 2.31-.72.9-.54 2.14-1.28 4.36-1.28s3.46.74 4.36 1.28c.74.45 1.19.72 2.31.72 1.11 0 1.56-.27 2.3-.71.9-.54 2.14-1.29 4.36-1.29s3.46.74 4.36 1.29c.74.45 1.19.71 2.3.71s1.56-.27 2.3-.71c.9-.54 2.14-1.29 4.36-1.29s3.46.74 4.36 1.29c.76.44 1.21.71 2.32.71v4zm-26.66-9c1.11 0 1.56-.27 2.3-.71.9-.54 2.14-1.29 4.36-1.29s3.46.74 4.36 1.29c.74.45 1.19.71 2.3.71s1.56-.27 2.3-.71c.24-.15.51-.3.81-.46L20.96 10C17.85 6.89 15 5.98 10 6v5c3.64-.02 5.77.78 8 3l2 2-6.5 6.5c.62.24 1.12.53 1.54.78.74.45 1.19.72 2.3.72z"/><circle cx="33" cy="11" r="5"/></symbol>
<symbol id="room_service"    viewBox="0 0 48 48"><path d="M4 34h40v4H4zm23.67-18.42c.21-.48.33-1.02.33-1.58 0-2.21-1.79-4-4-4s-4 1.79-4 4c0 .56.12 1.1.33 1.58C12.5 17.2 6.54 23.86 6 32h36c-.54-8.14-6.5-14.8-14.33-16.42z"/></symbol>
<symbol id="rv_hookup"    viewBox="0 0 48 48"><path d="M40 34V22c0-2.21-1.79-4-4-4H14v-4l-6 6 6 6v-4h8v6H8v6c0 2.21 1.79 4 4 4h4c0 3.32 2.68 6 6 6s6-2.68 6-6h16v-4h-4zm-18 6c-1.11 0-2-.89-2-2 0-1.11.89-2 2-2s2 .89 2 2c0 1.11-.89 2-2 2zm14-12h-8v-6h8v6zM34 4v4H18v4h16v4l6-6z"/></symbol>
<symbol id="smoke_free"    viewBox="0 0 48 48"><path d="M4 12l13.99 14H4v6h19.99l13.99 14 2.52-2.5-34-34zm37 14h3v6h-3zm-5 0h3v6h-3zm1.7-16.24c1.23-1.21 2-2.9 2-4.76h-3c0 2.04-1.66 3.7-3.7 3.7v3c4.49 0 8 3.65 8 8.14V24h3v-4.17c0-4.45-2.56-8.29-6.3-10.07zM29 17.39h3.06c2.09 0 3.94 1.48 3.94 4.11V24h3v-3.18c0-3.61-3.2-6.32-6.94-6.32H29c-2.04 0-3.7-1.96-3.7-4S26.96 7 29 7V4c-3.69 0-6.7 3-6.7 6.7s3.01 6.69 6.7 6.69zm5 14.46V26h-5.85z"/></symbol>
<symbol id="smoking_rooms"    viewBox="0 0 48 48"><path d="M4 32h30v6H4zm37 0h3v6h-3zm-5 0h3v6h-3zm1.7-16.54c1.23-1.21 2-2.9 2-4.76C39.7 7 36.69 4 33 4v3c2.04 0 3.7 1.66 3.7 3.7s-1.66 3.7-3.7 3.7v3c4.49 0 8 3.65 8 8.14V30h3v-4.47c0-4.45-2.56-8.29-6.3-10.07zm-5.64 4.93H29v.01c-2.04 0-3.7-1.96-3.7-4s1.66-3.5 3.7-3.5v-3c-3.69 0-6.7 3-6.7 6.7s3 6.7 6.7 6.7v-.01h3.06c2.09 0 3.94 1.48 3.94 4.11V30h3v-3.29c0-3.6-3.2-6.32-6.94-6.32z"/></symbol>
<symbol id="spa"    viewBox="0 0 48 48"><path fill="#607D8B" d="M17.09 24c-2.14-1.43-4.5-2.55-7.05-3.22 2.55.67 4.91 1.79 7.05 3.22zm20.87-3.22c-2.58.68-4.97 1.82-7.14 3.27 2.16-1.45 4.55-2.59 7.14-3.27z"/><path d="M30.99 19.27C30.62 13.69 28.36 8.24 24.12 4c-4.28 4.28-6.64 9.72-7.1 15.27 2.56 1.37 4.93 3.12 6.98 5.25 2.05-2.13 4.42-3.89 6.99-5.25zm-13 5.3c-.28-.21-.6-.38-.89-.57.29.19.6.36.89.57zm12.83-.52c-.26.18-.55.33-.8.51.25-.18.53-.33.8-.51zM24 30.91C19.7 24.34 12.35 20 4 20c0 10.63 6.72 19.65 16.07 22.97 1.27.45 2.58.79 3.93 1.03 1.35-.23 2.66-.57 3.93-1.03C37.28 39.65 44 30.63 44 20c-8.35 0-15.7 4.34-20 10.91z"/></symbol>
<view id="ac_unit-view" viewBox="0 0 48 48" />
<view id="airport_shuttle-view" viewBox="0 48 48 48" />
<view id="all_inclusive-view" viewBox="0 96 48 48" />
<view id="beach_access-view" viewBox="0 144 48 48" />
<view id="business_center-view" viewBox="0 192 48 48" />
<view id="casino-view" viewBox="0 240 48 48" />
<view id="child_care-view" viewBox="0 288 48 48" />
<view id="child_friendly-view" viewBox="0 336 48 48" />
<view id="fitness_center-view" viewBox="0 384 48 48" />
<view id="free_breakfast-view" viewBox="0 432 48 48" />
<view id="golf_course-view" viewBox="0 480 48 48" />
<view id="hot_tub-view" viewBox="0 528 48 48" />
<view id="kitchen-view" viewBox="0 576 48 48" />
<view id="pool-view" viewBox="0 624 48 48" />
<view id="room_service-view" viewBox="0 672 48 48" />
<view id="rv_hookup-view" viewBox="0 720 48 48" />
<view id="smoke_free-view" viewBox="0 768 48 48" />
<view id="smoking_rooms-view" viewBox="0 816 48 48" />
<view id="spa-view" viewBox="0 864 48 48" />
<use xlink:href="#ac_unit" width="48" height="48" x="0" y="0"></use>
<use xlink:href="#airport_shuttle" width="48" height="48" x="0" y="48"></use>
<use xlink:href="#all_inclusive" width="48" height="48" x="0" y="96"></use>
<use xlink:href="#beach_access" width="48" height="48" x="0" y="144"></use>
<use xlink:href="#business_center" width="48" height="48" x="0" y="192"></use>
<use xlink:href="#casino" width="48" height="48" x="0" y="240"></use>
<use xlink:href="#child_care" width="48" height="48" x="0" y="288"></use>
<use xlink:href="#child_friendly" width="48" height="48" x="0" y="336"></use>
<use xlink:href="#fitness_center" width="48" height="48" x="0" y="384"></use>
<use xlink:href="#free_breakfast" width="48" height="48" x="0" y="432"></use>
<use xlink:href="#golf_course" width="48" height="48" x="0" y="480"></use>
<use xlink:href="#hot_tub" width="48" height="48" x="0" y="528"></use>
<use xlink:href="#kitchen" width="48" height="48" x="0" y="576"></use>
<use xlink:href="#pool" width="48" height="48" x="0" y="624"></use>
<use xlink:href="#room_service" width="48" height="48" x="0" y="672"></use>
<use xlink:href="#rv_hookup" width="48" height="48" x="0" y="720"></use>
<use xlink:href="#smoke_free" width="48" height="48" x="0" y="768"></use>
<use xlink:href="#smoking_rooms" width="48" height="48" x="0" y="816"></use>
<use xlink:href="#spa" width="48" height="48" x="0" y="864"></use>
</svg>